<?xml version="1.0" encoding="UTF-8"?>
<svg height="128px" viewBox="0 0 128 128" width="128px" xmlns="http://www.w3.org/2000/svg" xmlns:xlink="http://www.w3.org/1999/xlink">
    <linearGradient id="a" gradientTransform="matrix(0.214286 0 0 0.256579 -2.984843 217.305053)" gradientUnits="userSpaceOnUse" x1="88.595886" x2="536.595886" y1="-449.394012" y2="-449.394012">
        <stop offset="0" stop-color="#c64600"/>
        <stop offset="0.0357143" stop-color="#ff7800"/>
        <stop offset="0.0713653" stop-color="#c64600"/>
        <stop offset="0.928571" stop-color="#c64600"/>
        <stop offset="0.964286" stop-color="#ff7800"/>
        <stop offset="1" stop-color="#c64600"/>
    </linearGradient>
    <linearGradient id="b" gradientUnits="userSpaceOnUse">
        <stop offset="0" stop-color="#deddda"/>
        <stop offset="1" stop-color="#ffffff"/>
    </linearGradient>
    <linearGradient id="c" gradientTransform="matrix(-0 -0.166667 61.999943 -0 -17760.98438 109.333342)" x1="32.000008" x2="80.000008" xlink:href="#b" y1="287.5" y2="287.5"/>
    <linearGradient id="d" gradientTransform="matrix(0 0.166667 61.999943 0 -17760.98438 106.666624)" x1="32.000008" x2="80.000008" xlink:href="#b" y1="287.5" y2="287.5"/>
    <path d="m 22.855469 24 h 82.289062 c 3.785157 0 6.855469 3.675781 6.855469 8.210938 v 61.578124 c 0 4.535157 -3.070312 8.210938 -6.855469 8.210938 h -82.289062 c -3.785157 0 -6.855469 -3.675781 -6.855469 -8.210938 v -61.578124 c 0 -4.535157 3.070312 -8.210938 6.855469 -8.210938 z m 0 0" fill="url(#a)"/>
    <path d="m 22.855469 8 h 82.289062 c 3.785157 0 6.855469 3.789062 6.855469 8.460938 v 55.078124 c 0 4.671876 -3.070312 8.460938 -6.855469 8.460938 h -82.289062 c -3.785157 0 -6.855469 -3.789062 -6.855469 -8.460938 v -55.078124 c 0 -4.671876 3.070312 -8.460938 6.855469 -8.460938 z m 0 0" fill="#ffa348"/>
    <path d="m 25 64 h 39 c 0.550781 0 1 0.449219 1 1 v 6 c 0 0.550781 -0.449219 1 -1 1 h -39 c -0.550781 0 -1 -0.449219 -1 -1 v -6 c 0 -0.550781 0.449219 -1 1 -1 z m 0 0" fill="#e66100"/>
    <path d="m 25 65 h 39 c 0.550781 0 1 0.449219 1 1 v 5 c 0 0.550781 -0.449219 1 -1 1 h -39 c -0.550781 0 -1 -0.449219 -1 -1 v -5 c 0 -0.550781 0.449219 -1 1 -1 z m 0 0" fill="#241f31"/>
    <path d="m 25 66 h 3 v 4.910156 h -3 z m 0 0" fill="#f6d32d"/>
    <path d="m 29 66 h 3 v 4.910156 h -3 z m 0 0" fill="#f6d32d"/>
    <path d="m 33 66 h 3 v 4.910156 h -3 z m 0 0" fill="#f6d32d"/>
    <path d="m 37 66 h 3 v 4.910156 h -3 z m 0 0" fill="#f6d32d"/>
    <g fill="#3d3846">
        <path d="m 41 66 h 3 v 4.910156 h -3 z m 0 0"/>
        <path d="m 45 66 h 3 v 4.910156 h -3 z m 0 0"/>
        <path d="m 49 66 h 3 v 4.910156 h -3 z m 0 0"/>
        <path d="m 53 66 h 3 v 4.910156 h -3 z m 0 0"/>
        <path d="m 57 66 h 3 v 4.910156 h -3 z m 0 0"/>
        <path d="m 61 66 h 3 v 4.910156 h -3 z m 0 0"/>
    </g>
    <path d="m 24.75 33 h 78.5 c 0.414062 0 0.75 0.375 0.75 0.832031 v 1.335938 c 0 0.457031 -0.335938 0.832031 -0.75 0.832031 h -78.5 c -0.414062 0 -0.75 -0.375 -0.75 -0.832031 v -1.335938 c 0 -0.457031 0.335938 -0.832031 0.75 -0.832031 z m 0 0" fill="#e66100"/>
    <path d="m 24.898438 35 h 78.203124 c 0.496094 0 0.898438 0.261719 0.898438 0.582031 v 12.835938 c 0 0.320312 -0.402344 0.582031 -0.898438 0.582031 h -78.203124 c -0.496094 0 -0.898438 -0.261719 -0.898438 -0.582031 v -12.835938 c 0 -0.320312 0.402344 -0.582031 0.898438 -0.582031 z m 0 0" fill="#241f31"/>
    <path d="m 27 44 h 8 v 2 h -8 z m 0 0" fill="#33d17a"/>
    <path d="m 84 68 c 0 2.210938 -1.789062 4 -4 4 s -4 -1.789062 -4 -4 s 1.789062 -4 4 -4 s 4 1.789062 4 4 z m 0 0" fill="#ff7800"/>
    <path d="m 84 67 c 0 2.210938 -1.789062 4 -4 4 s -4 -1.789062 -4 -4 s 1.789062 -4 4 -4 s 4 1.789062 4 4 z m 0 0" fill="#f8e45c"/>
    <path d="m 94 68 c 0 2.210938 -1.789062 4 -4 4 s -4 -1.789062 -4 -4 s 1.789062 -4 4 -4 s 4 1.789062 4 4 z m 0 0" fill="#ff7800"/>
    <path d="m 94 67 c 0 2.210938 -1.789062 4 -4 4 s -4 -1.789062 -4 -4 s 1.789062 -4 4 -4 s 4 1.789062 4 4 z m 0 0" fill="#f6d32d"/>
    <path d="m 104 68 c 0 2.210938 -1.789062 4 -4 4 s -4 -1.789062 -4 -4 s 1.789062 -4 4 -4 s 4 1.789062 4 4 z m 0 0" fill="#ff7800"/>
    <path d="m 104 67 c 0 2.210938 -1.789062 4 -4 4 s -4 -1.789062 -4 -4 s 1.789062 -4 4 -4 s 4 1.789062 4 4 z m 0 0" fill="#f5c211"/>
    <path d="m 33.28125 87 h 61.4375 c 0.707031 0 1.28125 0.449219 1.28125 1 s -0.574219 1 -1.28125 1 h -61.4375 c -0.707031 0 -1.28125 -0.449219 -1.28125 -1 s 0.574219 -1 1.28125 -1 z m 0 0" fill="#63452c"/>
    <path d="m 33 88 v 40 h 1 c 0 -0.550781 0.449219 -1 1 -1 s 1 0.449219 1 1 h 1 c 0 -0.550781 0.449219 -1 1 -1 s 1 0.449219 1 1 h 1 c 0 -0.550781 0.449219 -1 1 -1 s 1 0.449219 1 1 h 1 c 0 -0.550781 0.449219 -1 1 -1 s 1 0.449219 1 1 h 1 c 0 -0.550781 0.449219 -1 1 -1 s 1 0.449219 1 1 h 1 c 0 -0.550781 0.449219 -1 1 -1 s 1 0.449219 1 1 h 1 c 0 -0.550781 0.449219 -1 1 -1 s 1 0.449219 1 1 h 1 c 0 -0.550781 0.449219 -1 1 -1 s 1 0.449219 1 1 h 1 c 0 -0.550781 0.449219 -1 1 -1 s 1 0.449219 1 1 h 1 c 0 -0.550781 0.449219 -1 1 -1 s 1 0.449219 1 1 h 1 c 0 -0.550781 0.449219 -1 1 -1 s 1 0.449219 1 1 h 1 c 0 -0.550781 0.449219 -1 1 -1 s 1 0.449219 1 1 h 1 c 0 -0.550781 0.449219 -1 1 -1 s 1 0.449219 1 1 h 1 c 0 -0.550781 0.449219 -1 1 -1 s 1 0.449219 1 1 h 1 c 0 -0.550781 0.449219 -1 1 -1 s 1 0.449219 1 1 h 1 c 0 -0.550781 0.449219 -1 1 -1 s 1 0.449219 1 1 h 1 c 0 -0.550781 0.449219 -1 1 -1 s 1 0.449219 1 1 h 1 c 0 -0.550781 0.449219 -1 1 -1 s 1 0.449219 1 1 h 1 c 0 -0.550781 0.449219 -1 1 -1 s 1 0.449219 1 1 h 1 c 0 -0.550781 0.449219 -1 1 -1 s 1 0.449219 1 1 h 1 c 0 -0.550781 0.449219 -1 1 -1 v -39 z m 0 0" fill="#ffffff"/>
    <path d="m 33 100 h 62 v 16 h -62 z m 0 0" fill="#deddda"/>
    <path d="m 33 104 v -8 h 62 v 8 z m 0 0" fill="url(#c)"/>
    <path d="m 33 112 v 8 h 62 v -8 z m 0 0" fill="url(#d)"/>
</svg>
